<svg width="502" opacity="0.9" height="407" viewBox="0 0 402 407" fill="none" xmlns="http://www.w3.org/2000/svg">
    <path d="M400.282 204.476C400.477 164.565 388.976 125.493 367.233 92.2018C345.49 58.9103 314.482 32.8949 278.13 17.4454C241.778 1.99587 201.715 -2.19373 163.009 5.40658C124.302 13.0069 88.6896 32.0554 60.6756 60.1435L200.945 203.514L400.282 204.476Z" fill="#570769"/>
    <path d="M60.6771 60.1292C42.0477 78.7571 27.2384 100.927 17.0993 125.367C6.96028 149.806 1.6917 176.031 1.59654 202.537L200.933 203.499L60.6771 60.1292Z" fill="#270652"/>
    <path d="M1.59766 202.537C1.41202 242.444 12.9191 281.509 34.6644 314.794C56.4096 348.079 87.4165 374.089 123.765 389.535C160.113 404.982 200.171 409.171 238.875 401.574C277.578 393.978 313.188 374.936 341.204 346.855L200.934 203.499L1.59766 202.537Z" fill="#24049f"/>
</svg>
