<svg xmlns="http://www.w3.org/2000/svg" xmlns:xlink="http://www.w3.org/1999/xlink" width="73.168" height="99.978" viewBox="0 0 73.168 99.978">
  <defs>
    <clipPath id="clip-path">
      <rect id="Background" width="26.752" height="100" fill="none"/>
    </clipPath>
  </defs>
  <g id="strzalka-prawa" transform="translate(73.168 86.603) rotate(150)">
    <rect id="Background-2" data-name="Background" width="26.752" height="100" fill="none"/>
    <g id="strzalkq" clip-path="url(#clip-path)">
      <path id="Shape" d="M18.59,99.512c-.288,0-.586-.264-.8-.706a5.7,5.7,0,0,1-.4-1.411c-.054-.269-.111-.547-.181-.833l-.039-.133-.058-.2c-.044-.115-.088-.233-.133-.354l-.251-.7-.012-.032-.031-.087c-.17-.509-.347-1.1-.555-1.849l-.054-.2c-.162-.606-.314-1.179-.552-1.82a14.2,14.2,0,0,1-.693-2.369c-.049-.254-.116-.582-.2-1-.171-.832-.405-1.967-.662-3.357-.061-.309-.144-.636-.231-.982a14.355,14.355,0,0,1-.479-2.643c-.024-.424-.018-.858-.012-1.277,0-.275.008-.56,0-.837A9.607,9.607,0,0,0,13,76.614l-.066-.3a18.839,18.839,0,0,1-.386-2.092,7.949,7.949,0,0,1,.112-2.166c.025-.172.048-.333.069-.493a6.741,6.741,0,0,0,.064-1.2q-.032-.328-.063-.659v-.006q-.03-.318-.061-.64-.047-.486-.095-.98l0-.028q-.08-.831-.163-1.678-.1-1.363-.2-2.76l-.1-1.378-.178-1.39c-.057-.458-.113-.95-.142-1.445l-.041-1.439q-.006-.282-.013-.565v-.02c-.018-.75-.037-1.525-.034-2.288q-.03-1.588-.06-3.162-.047-.8-.093-1.6l0-.044q-.043-.741-.086-1.476c-.065-.769-.073-1.542-.08-2.29,0-.253-.005-.514-.01-.772q0-.3-.006-.6c0-.306-.006-.608-.009-.909a10.172,10.172,0,0,0-.179-1.423q-.031-.17-.063-.341a8.862,8.862,0,0,1-.224-2.641c.05-.447.134-.871.215-1.28a9.225,9.225,0,0,0,.21-1.432,15.1,15.1,0,0,0-.185-2.211l0-.016q-.019-.143-.038-.285c-.064-.488-.1-.892-.118-1.274l0-.219q-.01-.5-.019-.988c-.019-1.807.013-3.11.1-4.226a20.8,20.8,0,0,1,.427-3.261,7.842,7.842,0,0,1,.659-1.76c-2.487-.112-5.416-.239-8.692-.319-.727-.007-1.449-.022-2.146-.044H1.281a1.334,1.334,0,0,1-.837-.335,1.634,1.634,0,0,1-.157-.167A1.337,1.337,0,0,1,0,21.19v-.014a1.321,1.321,0,0,1,.249-.743C4.989,13.625,9.889,6.586,15.776.411A1.334,1.334,0,0,1,16.737,0a1.327,1.327,0,0,1,1.316,1.164,42.046,42.046,0,0,0,8.063,20.059,1.328,1.328,0,0,1-1.063,2.122h-.022c-4.23-.073-7.691-.22-10.874-.365a6.957,6.957,0,0,1,.174,1.919c.013,1.1,0,2.134-.04,3.151-.047,1.15-.1,2.438-.156,3.843l-.012.287-.009.269v.008q-.015.43-.028.874c-.013.4.008.816.031,1.173.009.133.018.267.027.4a15.68,15.68,0,0,1,.047,2.2,9.964,9.964,0,0,1-.346,1.667c-.1.361-.188.7-.252,1.044a8.049,8.049,0,0,0,.076,2.729,13.912,13.912,0,0,1,.139,1.49q-.007.3-.014.6v.018c-.006.291-.013.579-.02.868l-.006.311c-.018.885-.036,1.8.024,2.713.068.992.141,2.046.215,3.083l.118,1.787.089,1.336c.068,1.035.162,2.057.236,2.832L14.58,59c.049.468.131.935.212,1.37l.272,1.393c.067.359.115.725.161,1.08v.008q.021.161.042.318.186,1.373.366,2.723l.041.261.01.06q.186,1.178.367,2.327.062.4.125.793l0,.013v.007q.039.241.077.481a6.581,6.581,0,0,1,.038,1.387c-.015.21-.034.416-.051.615a7.474,7.474,0,0,0-.026,1.791,19.678,19.678,0,0,0,.552,2.263,10.679,10.679,0,0,1,.419,2.293c.022.326.033.642.043.947.013.393.025.764.061,1.115a12.629,12.629,0,0,0,.549,2.383c.106.354.207.686.291,1.021.3,1.393.574,2.528.774,3.356.1.423.182.756.239,1.011.119.654.306,1.307.487,1.939l.079.278a11.653,11.653,0,0,1,.382,2.171c.063.573.11,1.161.153,1.9q.018.362.036.7l.008.153c0,.145,0,.288.006.428a4.236,4.236,0,0,1-.036.428,9.352,9.352,0,0,1-.713,2.3l-.079.186c-.265.572-.477.917-.775.987A.429.429,0,0,1,18.59,99.512ZM19.6,15.623a13.8,13.8,0,0,1-3.169,1.415,20.857,20.857,0,0,1-2.642.7,27.781,27.781,0,0,1,5.791,1.19,1.323,1.323,0,0,1,.866,1.382,1.208,1.208,0,0,1-.056.263c.628.02,1.3.04,2.066.059A44.775,44.775,0,0,1,19.6,15.623Zm-15,3.2-.321.457-.016.022-.434.618c.2,0,.4,0,.677,0,1.306,0,2.667-.028,4.045-.084-1.047-.114-2.139-.241-3.031-.391a1.327,1.327,0,0,1-.92-.625ZM12.5,8.193c-1.928,2.387-3.884,4.986-6.34,8.429,1.146-.313,2.69-.611,4.325-.928l.08-.016A47.58,47.58,0,0,0,15.3,14.623a11.389,11.389,0,0,0-1.551-.414L13.7,14.2a12.362,12.362,0,0,1-2.156-.608,1.326,1.326,0,0,1-.012-2.434l3.228-1.426a.031.031,0,0,0-.012,0c-.108-.051-.223-.1-.334-.147A3.862,3.862,0,0,1,12.5,8.193Zm5.044,2.471a2.775,2.775,0,0,1-1.508,1.4c.139.049.265.1.384.149.034,0,.26.047.6.115l.224.046c.365.075.71.146,1.018.223C18,11.937,17.76,11.286,17.546,10.664ZM16.728,7.4l-.453.208a6.191,6.191,0,0,1,.637.429c-.037-.126-.074-.254-.11-.381Zm-.883-3.155c-.256.287-.557.627-.856.971l.552-.276a1.319,1.319,0,0,1,.414-.13C15.917,4.625,15.881,4.438,15.845,4.249Z" transform="translate(0 0)" fill="#fff"/>
    </g>
  </g>
</svg>
